<svg width="1346" height="95" viewBox="0 0 1346 95" fill="none" xmlns="http://www.w3.org/2000/svg">
<path d="M22.875 2V93H0.9375V2H22.875ZM58.25 39.875V56.75H16.625V39.875H58.25ZM61.8125 2V18.9375H16.625V2H61.8125ZM114.14 21.125L91.9525 93H68.39L101.827 2H116.765L114.14 21.125ZM132.515 93L110.265 21.125L107.39 2H122.515L156.14 93H132.515ZM131.64 59.0625V76H84.9525V59.0625H131.64ZM226.342 68.8125C226.342 67.3958 226.134 66.125 225.717 65C225.301 63.8333 224.53 62.75 223.405 61.75C222.28 60.75 220.655 59.75 218.53 58.75C216.447 57.7083 213.697 56.625 210.28 55.5C206.28 54.1667 202.426 52.6667 198.717 51C195.009 49.2917 191.697 47.3125 188.78 45.0625C185.863 42.7708 183.551 40.1042 181.842 37.0625C180.134 33.9792 179.28 30.3958 179.28 26.3125C179.28 22.3958 180.155 18.875 181.905 15.75C183.655 12.5833 186.092 9.89583 189.217 7.6875C192.384 5.4375 196.092 3.72917 200.342 2.5625C204.592 1.35417 209.238 0.75 214.28 0.75C220.947 0.75 226.822 1.91667 231.905 4.25C237.03 6.54167 241.03 9.8125 243.905 14.0625C246.822 18.2708 248.28 23.25 248.28 29H226.467C226.467 26.7083 225.988 24.6875 225.03 22.9375C224.113 21.1875 222.717 19.8125 220.842 18.8125C218.967 17.8125 216.613 17.3125 213.78 17.3125C211.03 17.3125 208.717 17.7292 206.842 18.5625C204.967 19.3958 203.551 20.5208 202.592 21.9375C201.634 23.3125 201.155 24.8333 201.155 26.5C201.155 27.875 201.53 29.125 202.28 30.25C203.072 31.3333 204.176 32.3542 205.592 33.3125C207.051 34.2708 208.801 35.1875 210.842 36.0625C212.926 36.9375 215.259 37.7917 217.842 38.625C222.676 40.1667 226.967 41.8958 230.717 43.8125C234.509 45.6875 237.697 47.8333 240.28 50.25C242.905 52.625 244.884 55.3333 246.217 58.375C247.592 61.4167 248.28 64.8542 248.28 68.6875C248.28 72.7708 247.488 76.3958 245.905 79.5625C244.322 82.7292 242.051 85.4167 239.092 87.625C236.134 89.7917 232.592 91.4375 228.467 92.5625C224.342 93.6875 219.738 94.25 214.655 94.25C209.988 94.25 205.384 93.6667 200.842 92.5C196.342 91.2917 192.259 89.4583 188.592 87C184.926 84.5 181.988 81.3125 179.78 77.4375C177.613 73.5208 176.53 68.875 176.53 63.5H198.53C198.53 66.1667 198.884 68.4167 199.592 70.25C200.301 72.0833 201.342 73.5625 202.717 74.6875C204.092 75.7708 205.78 76.5625 207.78 77.0625C209.78 77.5208 212.072 77.75 214.655 77.75C217.447 77.75 219.697 77.3542 221.405 76.5625C223.113 75.7292 224.363 74.6458 225.155 73.3125C225.947 71.9375 226.342 70.4375 226.342 68.8125ZM337.545 38.125V55H290.857V38.125H337.545ZM298.17 2V93H276.232V2H298.17ZM352.295 2V93H330.42V2H352.295ZM406.185 2V93H384.31V2H406.185ZM515.263 45.6875V49.375C515.263 56.3333 514.283 62.5833 512.325 68.125C510.408 73.625 507.679 78.3333 504.138 82.25C500.596 86.125 496.408 89.1042 491.575 91.1875C486.742 93.2292 481.408 94.25 475.575 94.25C469.7 94.25 464.325 93.2292 459.45 91.1875C454.617 89.1042 450.408 86.125 446.825 82.25C443.283 78.3333 440.533 73.625 438.575 68.125C436.658 62.5833 435.7 56.3333 435.7 49.375V45.6875C435.7 38.7292 436.658 32.4792 438.575 26.9375C440.533 21.3958 443.263 16.6875 446.763 12.8125C450.304 8.89583 454.492 5.91667 459.325 3.875C464.2 1.79167 469.575 0.75 475.45 0.75C481.283 0.75 486.617 1.79167 491.45 3.875C496.325 5.91667 500.533 8.89583 504.075 12.8125C507.617 16.6875 510.367 21.3958 512.325 26.9375C514.283 32.4792 515.263 38.7292 515.263 45.6875ZM493.013 49.375V45.5625C493.013 41.0625 492.617 37.1042 491.825 33.6875C491.075 30.2292 489.95 27.3333 488.45 25C486.95 22.6667 485.096 20.9167 482.888 19.75C480.721 18.5417 478.242 17.9375 475.45 17.9375C472.533 17.9375 469.992 18.5417 467.825 19.75C465.658 20.9167 463.846 22.6667 462.388 25C460.929 27.3333 459.825 30.2292 459.075 33.6875C458.367 37.1042 458.013 41.0625 458.013 45.5625V49.375C458.013 53.8333 458.367 57.7917 459.075 61.25C459.825 64.6667 460.929 67.5625 462.388 69.9375C463.888 72.3125 465.721 74.1042 467.888 75.3125C470.096 76.5208 472.658 77.125 475.575 77.125C478.367 77.125 480.846 76.5208 483.013 75.3125C485.179 74.1042 486.992 72.3125 488.45 69.9375C489.95 67.5625 491.075 64.6667 491.825 61.25C492.617 57.7917 493.013 53.8333 493.013 49.375ZM619.277 2V93H597.402L565.215 36.375V93H543.277V2H565.215L597.402 58.625V2H619.277ZM720.245 2V93H698.307V2H720.245ZM755.62 39.875V56.75H713.995V39.875H755.62ZM759.182 2V18.9375H713.995V2H759.182ZM811.51 21.125L789.323 93H765.76L799.198 2H814.135L811.51 21.125ZM829.885 93L807.635 21.125L804.76 2H819.885L853.51 93H829.885ZM829.01 59.0625V76H782.323V59.0625H829.01ZM927.213 62.1875H949.088C948.796 68.5208 947.088 74.1042 943.963 78.9375C940.838 83.7708 936.504 87.5417 930.963 90.25C925.463 92.9167 918.963 94.25 911.463 94.25C905.379 94.25 899.942 93.2292 895.15 91.1875C890.4 89.1458 886.358 86.2083 883.025 82.375C879.733 78.5417 877.213 73.8958 875.463 68.4375C873.754 62.9792 872.9 56.8333 872.9 50V45.0625C872.9 38.2292 873.796 32.0833 875.588 26.625C877.421 21.125 880.004 16.4583 883.338 12.625C886.713 8.75 890.754 5.79167 895.463 3.75C900.171 1.70833 905.4 0.6875 911.15 0.6875C919.067 0.6875 925.754 2.10417 931.213 4.9375C936.671 7.77083 940.9 11.6667 943.9 16.625C946.9 21.5417 948.671 27.1458 949.213 33.4375H927.338C927.254 30.0208 926.671 27.1667 925.588 24.875C924.504 22.5417 922.796 20.7917 920.463 19.625C918.129 18.4583 915.025 17.875 911.15 17.875C908.442 17.875 906.088 18.375 904.088 19.375C902.088 20.375 900.421 21.9583 899.088 24.125C897.754 26.2917 896.754 29.1042 896.088 32.5625C895.463 35.9792 895.15 40.1042 895.15 44.9375V50C895.15 54.8333 895.442 58.9583 896.025 62.375C896.608 65.7917 897.546 68.5833 898.838 70.75C900.129 72.9167 901.796 74.5208 903.838 75.5625C905.921 76.5625 908.463 77.0625 911.463 77.0625C914.796 77.0625 917.608 76.5417 919.9 75.5C922.192 74.4167 923.963 72.7917 925.213 70.625C926.463 68.4167 927.129 65.6042 927.213 62.1875ZM1018.29 2V93H996.352V2H1018.29ZM1045.66 2V18.9375H969.602V2H1045.66ZM1146.87 45.6875V49.375C1146.87 56.3333 1145.89 62.5833 1143.93 68.125C1142.01 73.625 1139.28 78.3333 1135.74 82.25C1132.2 86.125 1128.01 89.1042 1123.18 91.1875C1118.35 93.2292 1113.01 94.25 1107.18 94.25C1101.3 94.25 1095.93 93.2292 1091.05 91.1875C1086.22 89.1042 1082.01 86.125 1078.43 82.25C1074.89 78.3333 1072.14 73.625 1070.18 68.125C1068.26 62.5833 1067.3 56.3333 1067.3 49.375V45.6875C1067.3 38.7292 1068.26 32.4792 1070.18 26.9375C1072.14 21.3958 1074.87 16.6875 1078.37 12.8125C1081.91 8.89583 1086.1 5.91667 1090.93 3.875C1095.8 1.79167 1101.18 0.75 1107.05 0.75C1112.89 0.75 1118.22 1.79167 1123.05 3.875C1127.93 5.91667 1132.14 8.89583 1135.68 12.8125C1139.22 16.6875 1141.97 21.3958 1143.93 26.9375C1145.89 32.4792 1146.87 38.7292 1146.87 45.6875ZM1124.62 49.375V45.5625C1124.62 41.0625 1124.22 37.1042 1123.43 33.6875C1122.68 30.2292 1121.55 27.3333 1120.05 25C1118.55 22.6667 1116.7 20.9167 1114.49 19.75C1112.33 18.5417 1109.85 17.9375 1107.05 17.9375C1104.14 17.9375 1101.6 18.5417 1099.43 19.75C1097.26 20.9167 1095.45 22.6667 1093.99 25C1092.53 27.3333 1091.43 30.2292 1090.68 33.6875C1089.97 37.1042 1089.62 41.0625 1089.62 45.5625V49.375C1089.62 53.8333 1089.97 57.7917 1090.68 61.25C1091.43 64.6667 1092.53 67.5625 1093.99 69.9375C1095.49 72.3125 1097.33 74.1042 1099.49 75.3125C1101.7 76.5208 1104.26 77.125 1107.18 77.125C1109.97 77.125 1112.45 76.5208 1114.62 75.3125C1116.78 74.1042 1118.6 72.3125 1120.05 69.9375C1121.55 67.5625 1122.68 64.6667 1123.43 61.25C1124.22 57.7917 1124.62 53.8333 1124.62 49.375ZM1174.88 2H1210.69C1217.69 2 1223.78 3.04167 1228.94 5.125C1234.11 7.20833 1238.09 10.2917 1240.88 14.375C1243.72 18.4583 1245.13 23.5 1245.13 29.5C1245.13 34.7083 1244.32 39.0625 1242.69 42.5625C1241.07 46.0625 1238.8 48.9583 1235.88 51.25C1233.01 53.5 1229.65 55.3542 1225.82 56.8125L1218.63 60.875H1188.57L1188.44 43.9375H1210.69C1213.49 43.9375 1215.8 43.4375 1217.63 42.4375C1219.47 41.4375 1220.84 40.0208 1221.76 38.1875C1222.72 36.3125 1223.19 34.0833 1223.19 31.5C1223.19 28.875 1222.72 26.625 1221.76 24.75C1220.8 22.875 1219.38 21.4375 1217.51 20.4375C1215.67 19.4375 1213.4 18.9375 1210.69 18.9375H1196.82V93H1174.88V2ZM1224.69 93L1204.57 52.75L1227.82 52.625L1248.19 92.0625V93H1224.69ZM1288.52 2L1305.27 41.5L1322.08 2H1345.71L1316.46 60.3125V93H1294.15V60.3125L1264.83 2H1288.52Z" fill="black"/>
</svg>
